<?xml version="1.0" encoding="UTF-8"?>
<svg xmlns="http://www.w3.org/2000/svg" xmlns:xlink="http://www.w3.org/1999/xlink" viewBox="0 0 32 32" width="32px" height="32px">
<g id="surface123935301">
<path style=" stroke:none;fill-rule:nonzero;fill:rgb(100%,100%,100%);fill-opacity:1;" d="M 7 2 C 4.25 2 2 4.25 2 7 L 2 23 C 2 25.75 4.25 28 7 28 L 23 28 C 25.75 28 28 25.75 28 23 L 28 7 C 28 4.25 25.75 2 23 2 Z M 7 4 L 23 4 C 24.671875 4 26 5.328125 26 7 L 26 23 C 26 24.671875 24.671875 26 23 26 L 19.808594 26 L 19.808594 17.933594 L 22.601562 17.933594 L 23.019531 14.714844 L 19.808594 14.714844 L 19.808594 12.664062 C 19.808594 11.730469 20.066406 11.097656 21.414062 11.097656 L 23.132812 11.097656 L 23.132812 8.21875 C 22.835938 8.179688 21.816406 8.09375 20.628906 8.09375 C 18.152344 8.09375 16.460938 9.589844 16.460938 12.34375 L 16.460938 14.714844 L 14 14.707031 L 14 17.925781 L 16.460938 17.933594 L 16.460938 26 L 7 26 C 5.328125 26 4 24.671875 4 23 L 4 7 C 4 5.328125 5.328125 4 7 4 Z M 7 4 "/>
</g>
</svg>
