<svg width="25" height="25" viewBox="0 0 25 25" fill="none" xmlns="http://www.w3.org/2000/svg">
<path d="M4.80769 0C2.16346 0 0 2.16346 0 4.80769V20.1923C0 22.8365 2.16346 25 4.80769 25H20.1923C22.8365 25 25 22.8365 25 20.1923V4.80769C25 2.16346 22.8365 0 20.1923 0H4.80769ZM4.80769 1.92308H20.1923C21.7999 1.92308 23.0769 3.20012 23.0769 4.80769V20.1923C23.0769 21.7999 21.7999 23.0769 20.1923 23.0769H17.1236V15.3208H19.8092L20.2111 12.2258H17.1236V10.2539C17.1236 9.35622 17.3715 8.74775 18.6674 8.74775H20.32V5.97957C20.0346 5.94201 19.0542 5.85937 17.9124 5.85937C15.5311 5.85937 13.9047 7.29793 13.9047 9.94591V12.2258L11.5385 12.2183V15.3133L13.9047 15.3208V23.0769H4.80769C3.20012 23.0769 1.92308 21.7999 1.92308 20.1923V4.80769C1.92308 3.20012 3.20012 1.92308 4.80769 1.92308Z" fill="#ACACAC"/>
</svg>
