<svg width="44" height="36" viewBox="0 0 44 36" fill="none" xmlns="http://www.w3.org/2000/svg">
<path d="M18.0274 14.6413C18.3224 14.6413 18.5979 14.5603 18.8361 14.4207C19.0306 14.8643 19.1403 15.3533 19.1403 15.869C19.1403 16.2386 19.0846 16.5945 18.9826 16.9292C18.7145 16.7306 18.3846 16.612 18.0274 16.612C17.1325 16.612 16.4075 17.3452 16.4075 18.2495C16.4075 18.6284 16.536 18.9758 16.7497 19.2535C16.3879 19.3791 16.0016 19.4512 15.5973 19.4512C15.1934 19.4512 14.8067 19.3791 14.4454 19.2535C14.659 18.9754 14.7876 18.6284 14.7876 18.2495C14.7876 17.3452 14.0625 16.612 13.1676 16.612C12.8097 16.612 12.4806 16.731 12.2124 16.9292C12.1096 16.5945 12.0544 16.2386 12.0544 15.869C12.0544 15.3533 12.1645 14.8639 12.359 14.4207C12.5968 14.5599 12.873 14.6413 13.1676 14.6413C14.0625 14.6413 14.7876 13.9081 14.7876 13.0038C14.7876 12.7955 14.7477 12.597 14.6778 12.414C14.9717 12.3341 15.2786 12.2876 15.5973 12.2876C15.9161 12.2876 16.2237 12.3341 16.5172 12.414C16.447 12.5974 16.4075 12.7955 16.4075 13.0038C16.4075 13.9081 17.1325 14.6413 18.0274 14.6413ZM10.604 11.1351L11.1729 10.4367H10.0344L10.604 11.1351ZM12.3935 8.09539V9.24629L13.084 8.67123L12.3935 8.09539ZM25.3906 16.6639V15.6371L24.7746 16.1505L25.3906 16.6639ZM10.0344 6.90455H11.1729L10.604 6.20656L10.0344 6.90455ZM26.4033 14.5746H27.4195L26.9112 13.9519L26.4033 14.5746ZM28.5085 16.6639L29.1242 16.1505L28.5085 15.6371V16.6639ZM8.89891 9.24629V8.09539L8.20843 8.67084L8.89891 9.24629ZM38.0847 35.6185C31.9184 35.6185 32.6583 22.142 23.4132 22.142C11.9827 22.142 14.7139 35.7441 6.36676 35.7441C-3.5539 35.7441 -0.550313 1.80615 12.6985 1.80615C12.6985 1.80615 16.4401 3.66202 21.4944 4.30921L24.4857 4.30494C29.3436 3.64767 32.4013 1.86005 32.4013 1.86005C43.37 1.86044 47.9736 35.6185 38.0847 35.6185ZM24.9073 8.09539C24.9073 8.73094 25.4167 9.24629 26.0458 9.24629C26.6749 9.24629 27.1844 8.73094 27.1844 8.09539C27.1844 7.45945 26.6749 6.94449 26.0458 6.94449C25.4167 6.94449 24.9073 7.45945 24.9073 8.09539ZM21.5381 6.09644C21.7468 6.23371 21.9643 6.40006 22.1772 6.5858C22.3905 6.40006 22.6069 6.23371 22.8163 6.09566C22.6187 6.01539 22.4039 5.96847 22.1772 5.96886C21.9513 5.96847 21.7361 6.01539 21.5381 6.09644ZM10.604 11.6125C12.2113 11.6125 13.5144 10.2956 13.5144 8.67045C13.5144 7.04531 12.2117 5.72844 10.604 5.72844C8.99634 5.72844 7.69325 7.04531 7.69325 8.67045C7.69364 10.2956 8.99672 11.6125 10.604 11.6125ZM19.4778 15.869C19.4778 13.7025 17.7401 11.9463 15.5969 11.9463C13.4534 11.9463 11.7161 13.7025 11.7161 15.869C11.7161 18.0359 13.4534 19.7921 15.5969 19.7921C17.7401 19.7921 19.4778 18.0359 19.4778 15.869ZM19.746 8.09539C19.746 7.45945 19.2365 6.94449 18.6074 6.94449C17.9787 6.94449 17.4689 7.45945 17.4689 8.09539C17.4689 8.73094 17.9787 9.24629 18.6074 9.24629C19.2365 9.24629 19.746 8.73056 19.746 8.09539ZM20.6904 8.52659C20.7349 8.42344 20.7924 8.30672 20.8642 8.17992C21.0195 7.88832 21.2501 7.56376 21.5193 7.24966C21.2992 6.9918 21.1112 6.73005 20.9631 6.48265C20.6585 6.79403 20.4706 7.22213 20.4706 7.69443C20.4702 7.99845 20.5538 8.2788 20.6904 8.52659ZM23.4964 8.77864C23.3825 8.72978 23.2452 8.66386 23.0979 8.57739C22.8102 8.42034 22.4879 8.18729 22.1776 7.91546C21.8677 8.18768 21.545 8.42034 21.2577 8.57739C21.1093 8.66386 20.9727 8.72978 20.8588 8.77864C21.1726 9.16757 21.6436 9.42117 22.1776 9.42079C22.712 9.42079 23.1834 9.16718 23.4964 8.77864ZM23.8854 7.69482C23.8854 7.22213 23.6963 6.79481 23.3925 6.48304C23.2429 6.73044 23.056 6.99218 22.8351 7.25005C23.1052 7.56414 23.3353 7.88832 23.4903 8.18031C23.5628 8.30672 23.6192 8.42383 23.6644 8.52698C23.8006 8.2788 23.8854 7.99806 23.8854 7.69482ZM29.509 16.1505C29.509 14.7003 28.3467 13.5249 26.9116 13.5249C25.4773 13.5249 24.3143 14.7003 24.3143 16.1505C24.3143 17.6004 25.4769 18.7761 26.9116 18.7761C28.3463 18.7761 29.509 17.6004 29.509 16.1505ZM32.5597 11.0905C32.5597 10.3972 32.0031 9.83531 31.318 9.83531C30.6322 9.83531 30.0763 10.3972 30.0763 11.0905C30.0763 11.7835 30.6322 12.3457 31.318 12.3457C32.0031 12.3461 32.5597 11.7839 32.5597 11.0905ZM32.5597 7.97053C32.5597 8.66386 33.1156 9.22574 33.8007 9.22574C34.4866 9.22574 35.0424 8.66386 35.0424 7.97053C35.0424 7.27758 34.4866 6.7157 33.8007 6.7157C33.1156 6.71532 32.5597 7.27719 32.5597 7.97053ZM35.3251 13.6013C35.3251 12.908 34.7697 12.3461 34.0838 12.3461C33.3979 12.3461 32.8421 12.908 32.8421 13.6013C32.8421 14.2943 33.3979 14.8562 34.0838 14.8562C34.7697 14.8562 35.3251 14.2943 35.3251 13.6013ZM37.8085 10.4809C37.8085 9.78762 37.2527 9.22574 36.5672 9.22574C35.8817 9.22574 35.3259 9.78762 35.3259 10.4809C35.3259 11.1739 35.8817 11.7362 36.5672 11.7362C37.2523 11.7362 37.8085 11.1739 37.8085 10.4809ZM26.9112 18.3496L27.4195 17.7268H26.4033L26.9112 18.3496Z" fill="white"/>
</svg>
