<?xml version="1.0" encoding="UTF-8"?>
<svg xmlns="http://www.w3.org/2000/svg" xmlns:xlink="http://www.w3.org/1999/xlink" viewBox="0 0 32 32" width="32px" height="32px">
<g id="surface123965813">
<path style=" stroke:none;fill-rule:nonzero;fill:rgb(100%,100%,100%);fill-opacity:1;" d="M 15 2 C 7.820312 2 2 7.8125 2 14.976562 C 2 20.710938 5.726562 25.578125 10.890625 27.296875 C 11.539062 27.414062 12 26.75 12 26.25 C 12 25.945312 12.007812 25.578125 12 24.5 C 8.382812 25.28125 7.25 22.75 7.25 22.75 C 6.65625 21.25 5.9375 20.820312 5.9375 20.820312 C 4.757812 20.015625 6.023438 20.039062 6.023438 20.039062 C 7.328125 20.125 8 21.25 8 21.25 C 9 23 11.257812 22.828125 12 22.5 C 12 21.703125 12.085938 21.125 12.304688 20.757812 C 8.21875 20.039062 5.992188 17.679688 6 14.414062 C 6.007812 12.484375 6.671875 10.984375 7.75 9.875 C 7.28125 9.28125 6.960938 7.25 7.921875 6 C 10.335938 6 11.773438 7.742188 11.773438 7.742188 C 11.773438 7.742188 12.90625 7.25 14.992188 7.25 C 17.085938 7.25 18.210938 7.71875 18.210938 7.71875 C 18.210938 7.71875 19.65625 6 22.070312 6 C 23.03125 7.25 22.710938 9.28125 22.335938 9.835938 C 23.367188 10.921875 24 12.421875 24 14.414062 C 24 17.679688 21.78125 20.039062 17.703125 20.75 C 17.960938 21.140625 18 21.6875 18 22.5 C 18 24.234375 18 25.820312 18 26.25 C 18 26.75 18.453125 27.421875 19.117188 27.296875 C 24.28125 25.570312 28 20.710938 28 14.976562 C 28 7.8125 22.179688 2 15 2 Z M 15 2 "/>
</g>
</svg>
