<svg width="25" height="25" viewBox="0 0 25 25" fill="none" xmlns="http://www.w3.org/2000/svg">
<path d="M12.5 0C5.59645 0 0 5.74083 0 12.8166C0 18.4802 3.58323 23.2874 8.54868 24.985C9.17217 25.1007 9.61538 24.4448 9.61538 23.951C9.61538 23.6501 9.6229 23.2874 9.61538 22.2226C6.13732 22.9942 5.04808 20.4942 5.04808 20.4942C4.47716 19.0127 3.78606 18.5883 3.78606 18.5883C2.65174 17.7935 3.86869 17.8166 3.86869 17.8166C5.1232 17.9015 5.76923 19.0127 5.76923 19.0127C6.73077 20.7411 8.90174 20.5713 9.61538 20.2472C9.61538 19.4602 9.69802 18.8892 9.90835 18.5265C5.97957 17.8166 3.83864 15.4864 3.84615 12.261C3.85367 10.3551 4.49219 8.8736 5.52885 7.77791C5.07812 7.19148 4.77013 5.18527 5.69411 3.95068C8.01532 3.95068 9.39754 5.67139 9.39754 5.67139C9.39754 5.67139 10.4868 5.18527 12.4925 5.18527C14.5057 5.18527 15.5874 5.64824 15.5874 5.64824C15.5874 5.64824 16.9772 3.95068 19.2984 3.95068C20.2224 5.18527 19.9144 7.19148 19.5538 7.73933C20.5454 8.81187 21.1538 10.2934 21.1538 12.261C21.1538 15.4864 19.0204 17.8166 15.0992 18.5188C15.3471 18.9046 15.3846 19.4448 15.3846 20.2472C15.3846 21.9602 15.3846 23.5266 15.3846 23.951C15.3846 24.4448 15.8203 25.1084 16.4588 24.985C21.4243 23.2797 25 18.4802 25 12.8166C25 5.74083 19.4035 0 12.5 0Z" fill="#ACACAC"/>
</svg>
