<?xml version="1.0" encoding="UTF-8"?>
<svg xmlns="http://www.w3.org/2000/svg" xmlns:xlink="http://www.w3.org/1999/xlink" viewBox="0 0 32 32" width="32px" height="32px">
<g id="surface124113028">
<path style=" stroke:none;fill-rule:nonzero;fill:rgb(100%,100%,100%);fill-opacity:1;" d="M 5.515625 2 C 3.585938 2 2 3.585938 2 5.515625 L 2 24.492188 C 2 26.414062 3.585938 28 5.515625 28 L 24.492188 28 C 26.414062 28 28 26.414062 28 24.492188 L 28 5.515625 C 28 3.585938 26.414062 2 24.492188 2 Z M 5.515625 4 L 24.492188 4 C 25.335938 4 26 4.664062 26 5.515625 L 26 24.492188 C 26 25.335938 25.335938 26 24.492188 26 L 5.515625 26 C 4.664062 26 4 25.335938 4 24.492188 L 4 5.515625 C 4 4.664062 4.664062 4 5.515625 4 Z M 8 6 C 6.898438 6 6 6.898438 6 8 C 6 9.101562 6.898438 10 8 10 C 9.101562 10 10 9.101562 10 8 C 10 6.898438 9.101562 6 8 6 Z M 6 12 L 6 24 L 10 24 L 10 12 Z M 12 12 L 12 24 L 16 24 L 16 18.640625 C 16 16.976562 16.15625 15.484375 18.15625 15.484375 C 20.125 15.484375 20 17.273438 20 18.75 L 20 24 L 24 24 L 24 18.078125 C 24 14.640625 23.28125 12 19.382812 12 C 17.507812 12 16.5625 12.75 16.046875 13.75 L 16 13.75 L 16 12 Z M 12 12 "/>
</g>
</svg>
