<svg width="25" height="25" viewBox="0 0 25 25" fill="none" xmlns="http://www.w3.org/2000/svg">
<path d="M3.38041 0C1.52494 0 0 1.52494 0 3.38041V21.6271C0 23.4751 1.52494 25 3.38041 25H21.6271C23.4751 25 25 23.4751 25 21.6271V3.38041C25 1.52494 23.4751 0 21.6271 0H3.38041ZM3.38041 1.92308H21.6271C22.4384 1.92308 23.0769 2.5616 23.0769 3.38041V21.6271C23.0769 22.4384 22.4384 23.0769 21.6271 23.0769H3.38041C2.5616 23.0769 1.92308 22.4384 1.92308 21.6271V3.38041C1.92308 2.5616 2.5616 1.92308 3.38041 1.92308ZM5.76923 3.84615C4.71004 3.84615 3.84615 4.71004 3.84615 5.76923C3.84615 6.82842 4.71004 7.69231 5.76923 7.69231C6.82842 7.69231 7.69231 6.82842 7.69231 5.76923C7.69231 4.71004 6.82842 3.84615 5.76923 3.84615ZM3.84615 9.61538V21.1538H7.69231V9.61538H3.84615ZM9.61538 9.61538V21.1538H13.4615V16.0006C13.4615 14.4005 13.6118 12.9657 15.5349 12.9657C17.4279 12.9657 17.3077 14.686 17.3077 16.1058V21.1538H21.1538V15.4597C21.1538 12.1544 20.4627 9.61538 16.7142 9.61538C14.9114 9.61538 14.0024 10.3365 13.5066 11.2981H13.4615V9.61538H9.61538Z" fill="#ACACAC"/>
</svg>
