<?xml version="1.0" encoding="UTF-8"?>
<svg xmlns="http://www.w3.org/2000/svg" xmlns:xlink="http://www.w3.org/1999/xlink" viewBox="0 0 32 32" width="32px" height="32px">
<g id="surface124101747">
<path style=" stroke:none;fill-rule:nonzero;fill:rgb(100%,100%,100%);fill-opacity:1;" d="M 30 6.59375 C 28.953125 7.046875 27.898438 7.382812 26.734375 7.492188 C 27.898438 6.820312 28.835938 5.6875 29.296875 4.453125 C 28.132812 5.125 26.96875 5.578125 25.6875 5.804688 C 24.515625 4.679688 23 4 21.367188 4 C 18.21875 4 15.648438 6.484375 15.648438 9.53125 C 15.648438 9.976562 15.648438 10.429688 15.765625 10.773438 C 9.75 10.773438 5.625 7.382812 2.828125 4 C 2.242188 4.789062 2.007812 5.804688 2.007812 6.820312 C 2.007812 8.734375 3.0625 10.429688 4.578125 11.445312 C 3.640625 11.335938 2.710938 11.109375 2.007812 10.773438 C 2.007812 10.773438 2.007812 10.773438 2.007812 10.882812 C 2.007812 13.59375 3.992188 15.84375 6.5625 16.296875 C 6.09375 16.40625 5.625 16.523438 5.039062 16.523438 C 4.695312 16.523438 4.34375 16.523438 3.992188 16.414062 C 4.695312 18.671875 7.953125 21.265625 10.515625 21.265625 C 8.53125 22.726562 6.6875 24 3 24 C 2.53125 24 2.90625 24 2 24 C 4.5625 25.578125 7.601562 26 10.75 26 C 21.367188 26 27.085938 17.539062 27.085938 10.203125 C 27.085938 9.976562 27.085938 9.757812 27.085938 9.53125 C 28.25 8.734375 29.1875 7.726562 30 6.59375 "/>
</g>
</svg>
