<svg width="25" height="26" viewBox="0 0 25 26" fill="none" xmlns="http://www.w3.org/2000/svg">
<path d="M25 3.56268C24.0653 4.07759 23.1236 4.45934 22.0843 4.58363C23.1236 3.82013 23.9607 2.53285 24.3722 1.13015C23.3329 1.89364 22.2935 2.40856 21.1496 2.66602C20.1032 1.38761 18.75 0.615234 17.2921 0.615234C14.481 0.615234 12.1861 3.43839 12.1861 6.90075C12.1861 7.40678 12.1861 7.9217 12.2907 8.31232C6.91964 8.31232 3.23661 4.45934 0.739397 0.615234C0.216239 1.5119 0.00697502 2.66602 0.00697502 3.82013C0.00697502 5.99521 0.948661 7.9217 2.3019 9.07582C1.46484 8.95153 0.634766 8.69407 0.00697502 8.31232C0.00697502 8.31232 0.00697502 8.31232 0.00697502 8.43661C0.00697502 11.5172 1.77874 14.074 4.07366 14.589C3.65513 14.7132 3.23661 14.8464 2.71345 14.8464C2.40653 14.8464 2.09263 14.8464 1.77874 14.7221C2.40653 17.2878 5.31529 20.2353 7.60324 20.2353C5.83147 21.8954 4.18527 23.3425 0.892857 23.3425C0.47433 23.3425 0.809152 23.3425 0 23.3425C2.28795 25.1358 5.00139 25.6152 7.8125 25.6152C17.2921 25.6152 22.3982 16.0005 22.3982 7.66424C22.3982 7.40678 22.3982 7.1582 22.3982 6.90075C23.4375 5.99521 24.2746 4.84996 25 3.56268Z" fill="#ACACAC"/>
</svg>
