<svg width="25" height="25" viewBox="0 0 25 25" fill="none" xmlns="http://www.w3.org/2000/svg">
<path d="M4.85717 0L6.8928 5.65956V9.35189H8.60702V5.47797L10.5712 0H8.85701L7.78562 3.7226H7.67848L6.57138 0H4.85717ZM12.7497 2.26988C12.0622 2.26988 11.5131 2.43633 11.1069 2.75412C10.7007 3.06811 10.4998 3.49183 10.4998 4.02525V7.59652C10.4998 8.1829 10.7096 8.67471 11.1069 9.01897C11.5087 9.36702 12.0131 9.53348 12.6783 9.53348C13.3658 9.53348 13.9282 9.35567 14.3211 9.01897C14.7139 8.68227 14.8925 8.21695 14.8925 7.62678V4.05551C14.8925 3.52966 14.6871 3.1173 14.2854 2.78438C13.8881 2.44768 13.3791 2.26988 12.7497 2.26988ZM16.1781 2.45147V8.23208C16.1781 8.64444 16.2853 8.93574 16.4638 9.14003C16.6424 9.34432 16.9013 9.44268 17.2495 9.44268C17.5308 9.44268 17.8075 9.37459 18.1066 9.23083C18.4102 9.08328 18.7227 8.87521 18.9995 8.59526V9.35189H20.4994V2.45147H18.9995V7.68731C18.8566 7.83485 18.7048 7.95591 18.5352 8.05049C18.3655 8.14885 18.2182 8.20182 18.1066 8.20182C17.9682 8.20182 17.8477 8.1829 17.7852 8.11102C17.7183 8.03914 17.7138 7.90673 17.7138 7.74784V2.45147H16.1781ZM12.6783 3.48048C12.8792 3.48048 13.0577 3.51074 13.1783 3.60154C13.3033 3.69611 13.3568 3.81717 13.3568 3.96472V7.74784C13.3568 7.93321 13.2988 8.06941 13.1783 8.17155C13.0577 8.27748 12.8836 8.32288 12.6783 8.32288C12.4774 8.32288 12.3212 8.2737 12.214 8.17155C12.1024 8.06941 12.0712 7.937 12.0712 7.74784V3.96472C12.0712 3.81717 12.1337 3.69611 12.2497 3.60154C12.3658 3.51074 12.4953 3.48048 12.6783 3.48048ZM12.4997 10.7743C9.53555 10.7706 6.62942 10.7933 3.78578 10.8954C1.79926 10.8954 0.178788 12.2535 0.178788 13.9219C0.0582566 15.2422 -0.00424031 16.5663 0.000223511 17.8866C-0.00424031 19.2069 0.0582566 20.531 0.178788 21.8513C0.178788 23.5197 1.79926 24.8778 3.78578 24.8778C6.62942 24.9762 9.53555 25.0027 12.4997 24.9989C15.4683 25.0065 18.3745 24.9762 21.2136 24.8778C23.2002 24.8778 24.8206 23.5197 24.8206 21.8513C24.9412 20.531 25.0037 19.2069 24.9992 17.8866C25.0081 16.5663 24.9412 15.2422 24.8206 13.9219C24.8206 12.2535 23.2002 10.8954 21.2136 10.8954C18.3745 10.7933 15.4683 10.7706 12.4997 10.7743ZM1.92872 12.9232H7.1785C7.27225 12.9232 7.35707 12.995 7.35707 13.0745V14.4364C7.35707 14.5159 7.27225 14.5877 7.1785 14.5877H5.57143V22.4264C5.57143 22.5058 5.52232 22.5777 5.42857 22.5777H3.71436C3.62061 22.5777 3.53579 22.5058 3.53579 22.4264V14.5877H1.92872C1.83497 14.5877 1.78587 14.5159 1.78587 14.4364V13.0745C1.78587 12.995 1.83497 12.9232 1.92872 12.9232ZM12.964 12.9232H14.4996C14.5934 12.9232 14.6782 12.995 14.6782 13.0745V15.7075C14.8032 15.6092 14.9371 15.5297 15.071 15.4654C15.33 15.3444 15.5933 15.2838 15.8567 15.2838C16.3924 15.2838 16.7853 15.4654 17.071 15.7983C17.3433 16.1199 17.4995 16.5701 17.4995 17.1603V21.0039C17.4995 21.526 17.3701 21.9308 17.1067 22.2145C16.8344 22.5096 16.4281 22.6685 15.9281 22.6685C15.6112 22.6685 15.33 22.5966 15.071 22.4869C14.9327 22.4264 14.8032 22.3696 14.6782 22.275V22.4264C14.6782 22.5058 14.5934 22.5777 14.4996 22.5777H12.964C12.8702 22.5777 12.7854 22.5058 12.7854 22.4264V13.0745C12.7854 12.995 12.8702 12.9232 12.964 12.9232ZM20.7494 15.193C21.4904 15.193 22.0975 15.3898 22.4993 15.7681C22.9011 16.1464 23.1064 16.6836 23.1064 17.3721V19.1577C23.1064 19.2372 23.0216 19.2788 22.9279 19.2788H20.2137V20.4591C20.2137 20.8829 20.2673 21.0493 20.3208 21.125C20.3655 21.1855 20.4414 21.2763 20.678 21.2763C20.8699 21.2763 21.0038 21.2309 21.0708 21.1552C21.102 21.1136 21.1779 20.9623 21.1779 20.4591V19.9749C21.1779 19.8955 21.2628 19.8236 21.3565 19.8236H22.9279C23.0216 19.8236 23.1064 19.8955 23.1064 19.9749V20.4894C23.1064 21.2347 22.8698 21.8022 22.4636 22.1842C22.0574 22.5701 21.4458 22.7593 20.6422 22.7593C19.9146 22.7593 19.3477 22.5663 18.928 22.154C18.5129 21.7492 18.2852 21.1893 18.2852 20.4894V17.3721C18.2852 16.7365 18.5039 16.2334 18.9637 15.8286C19.4235 15.4238 20.0262 15.193 20.7494 15.193ZM7.1785 15.3746H8.67844C8.77219 15.3746 8.85701 15.4465 8.85701 15.5259V20.8223C8.85701 20.9963 8.8704 21.0682 8.89272 21.0947C8.90165 21.1061 8.94182 21.1552 9.07128 21.1552C9.11592 21.1552 9.21413 21.1401 9.3927 21.0342C9.54001 20.9509 9.66947 20.8488 9.78554 20.7315V15.5259C9.78554 15.4465 9.87036 15.3746 9.9641 15.3746H11.4998C11.5935 15.3746 11.6426 15.4465 11.6426 15.5259V22.4264C11.6426 22.5058 11.5935 22.5777 11.4998 22.5777H9.9641C9.87036 22.5777 9.78554 22.5058 9.78554 22.4264V22.0329C9.58466 22.1994 9.38824 22.3242 9.17842 22.4264C8.84808 22.5853 8.53559 22.6685 8.21418 22.6685C7.80794 22.6685 7.49545 22.5512 7.28564 22.3053C7.08476 22.0745 6.99994 21.7454 6.99994 21.3066V15.5259C6.99994 15.4465 7.08476 15.3746 7.1785 15.3746ZM15.071 16.676C15.013 16.6836 14.955 16.7101 14.8925 16.7365C14.821 16.7668 14.7496 16.8236 14.6782 16.8879V21.0644C14.7675 21.1439 14.8434 21.212 14.9282 21.246C15.0219 21.2839 15.1112 21.3066 15.2139 21.3066C15.4058 21.3066 15.4817 21.2385 15.4996 21.2158C15.5442 21.1666 15.571 21.0531 15.571 20.8223V17.2511C15.571 17.0543 15.5487 16.8917 15.4639 16.7971C15.3791 16.7025 15.2451 16.6495 15.071 16.676ZM20.7137 16.7063C20.5306 16.7063 20.3967 16.7403 20.3208 16.8273C20.2673 16.8917 20.2137 17.0505 20.2137 17.3721V17.9169H21.1779V17.3721C21.1779 17.0543 21.1288 16.8992 21.0708 16.8273C20.9994 16.7441 20.8878 16.7063 20.7137 16.7063Z" fill="#ACACAC"/>
</svg>
